<svg width="150" height="32" viewBox="0 0 150 32" fill="none" xmlns="http://www.w3.org/2000/svg">
<g clip-path="url(#clip0_5120_6933)">
<path d="M0 0V32H47.126V0H0ZM46.2185 31.0861H0.905932V0.877172H46.2185V31.0861Z" fill="white"/>
<path d="M22.5971 7.45985L23.5526 6.76163L24.5097 7.45985L24.1454 6.33024L25.1168 5.63361H23.9201L23.5526 4.49121L23.1867 5.63521L21.99 5.63361L22.9614 6.33024L22.5971 7.45985Z" fill="white"/>
<path d="M17.6489 8.78958L18.6043 8.09136L19.5614 8.78958L19.1971 7.66156L20.1685 6.96333H18.9702L18.6043 5.81934L18.2384 6.96493L17.0417 6.96333L18.0116 7.66156L17.6489 8.78958Z" fill="white"/>
<path d="M14.9854 9.44727L14.6179 10.5929L13.4212 10.5913L14.3926 11.2895L14.0284 12.4175L14.9854 11.7193L15.9409 12.4175L15.5766 11.2895L16.548 10.5913H15.3513L14.9854 9.44727Z" fill="white"/>
<path d="M13.6561 16.6617L14.6115 17.3599L14.2488 16.2319L15.2187 15.5336H14.0235L13.6561 14.3896L13.2902 15.5368L12.0934 15.5336L13.0649 16.2319L12.7006 17.3599L13.6561 16.6617Z" fill="white"/>
<path d="M15.3513 20.4901L14.9838 19.3477L14.6179 20.4917L13.4212 20.4901L14.3926 21.1883L14.0284 22.3163L14.9838 21.6181L15.9409 22.3163L15.5766 21.1883L16.548 20.4901H15.3513Z" fill="white"/>
<path d="M18.9782 24.1164L18.6123 22.9756L18.2464 24.118L17.0497 24.1164L18.0196 24.8146L17.6569 25.9426L18.6123 25.246L19.5678 25.9426L19.2051 24.8146L20.1749 24.1164H18.9782Z" fill="white"/>
<path d="M23.9201 25.4315L23.5542 24.2891L23.1883 25.4331L21.9916 25.4315L22.9614 26.1297L22.5987 27.2577L23.5542 26.5595L24.5097 27.2577L24.1454 26.1297L25.1168 25.4315H23.9201Z" fill="white"/>
<path d="M28.862 24.1164L28.4961 22.9756L28.1286 24.118L26.9335 24.1164L27.9033 24.8146L27.5407 25.9426L28.4961 25.246L29.4532 25.9426L29.0873 24.8146L30.0587 24.1164H28.862Z" fill="white"/>
<path d="M32.4905 20.4901L32.123 19.3477L31.7571 20.4917L30.5604 20.4901L31.5319 21.1883L31.1676 22.3163L32.123 21.6181L33.0801 22.3163L32.7158 21.1883L33.6872 20.4901H32.4905Z" fill="white"/>
<path d="M35.0006 15.5194H33.8039L33.4364 14.377L33.0721 15.521L31.8738 15.5194L32.8452 16.2176L32.4825 17.3456L33.4364 16.6474L34.3935 17.3456L34.0308 16.2176L35.0006 15.5194Z" fill="white"/>
<path d="M31.1676 12.4016L32.123 11.705L33.0801 12.4016L32.7158 11.2736L33.6872 10.577H32.4905L32.123 9.43457L31.7571 10.5786L30.5604 10.577L31.5319 11.2736L31.1676 12.4016Z" fill="white"/>
<path d="M28.5105 5.82031L28.1446 6.96431L26.9478 6.96271L27.9177 7.66094L27.5534 8.79055L28.5121 8.09073L29.4659 8.79055L29.1032 7.66094L30.0747 6.96271H28.8763L28.5105 5.82031Z" fill="white"/>
<path d="M52.7741 12.2488V4.81445H57.8709V6.07189H54.276V7.83103H57.3788V9.08847H54.276V12.2472H52.7757L52.7741 12.2488Z" fill="white"/>
<path d="M62.6419 12.249V11.4421C62.4453 11.7297 62.1881 11.9566 61.8685 12.1212C61.549 12.2873 61.2119 12.3688 60.8572 12.3688C60.5025 12.3688 60.1701 12.2889 59.8841 12.1308C59.5965 11.9726 59.3888 11.7489 59.261 11.4613C59.1332 11.1737 59.0677 10.7774 59.0677 10.2694V6.86133H60.4929V9.33626C60.4929 10.0936 60.5184 10.557 60.5712 10.7279C60.6239 10.8989 60.7181 11.0347 60.8572 11.1337C60.9962 11.2328 61.1719 11.2839 61.3844 11.2839C61.6273 11.2839 61.8462 11.2168 62.0379 11.0842C62.2312 10.9516 62.3622 10.7854 62.4325 10.5873C62.5044 10.3892 62.5396 9.90507 62.5396 9.13494V6.86293H63.9648V12.249H62.6419Z" fill="white"/>
<path d="M70.3399 12.2491H68.9147V9.5009C68.9147 8.91932 68.8843 8.54384 68.8236 8.37288C68.7629 8.20192 68.6638 8.06931 68.5264 7.97504C68.389 7.88077 68.2244 7.83284 68.0327 7.83284C67.7867 7.83284 67.5646 7.89994 67.368 8.03575C67.1715 8.17156 67.0373 8.35051 66.9654 8.5742C66.8919 8.79789 66.8568 9.21011 66.8568 9.81087V12.2507H65.4315V6.86459H66.7545V7.65549C67.2242 7.04674 67.8154 6.74316 68.5296 6.74316C68.8444 6.74316 69.132 6.79909 69.3924 6.91253C69.6528 7.02597 69.8494 7.16977 69.9836 7.34552C70.1178 7.52127 70.2105 7.721 70.2632 7.94468C70.3159 8.16837 70.3415 8.48792 70.3415 8.90334V12.2507L70.3399 12.2491Z" fill="white"/>
<path d="M76.7245 12.2488H75.4016V11.458C75.1811 11.7663 74.9223 11.9948 74.6235 12.145C74.3247 12.2952 74.0227 12.3703 73.7176 12.3703C73.0992 12.3703 72.5688 12.121 72.1278 11.6225C71.6868 11.124 71.4663 10.429 71.4663 9.53584C71.4663 8.64269 71.6804 7.93009 72.1102 7.45396C72.54 6.97942 73.0816 6.74136 73.7383 6.74136C74.3407 6.74136 74.86 6.9922 75.3009 7.4923V4.81445H76.7261V12.2488H76.7245ZM72.9219 9.43998C72.9219 10.0152 73.0018 10.4306 73.1599 10.6878C73.39 11.0601 73.7112 11.2455 74.1234 11.2455C74.4509 11.2455 74.7305 11.1064 74.9606 10.8268C75.1907 10.5472 75.3057 10.1318 75.3057 9.57738C75.3057 8.95905 75.1939 8.51328 74.9718 8.24166C74.7497 7.97004 74.4621 7.83263 74.1154 7.83263C73.7687 7.83263 73.4939 7.96684 73.2654 8.23526C73.0369 8.50369 72.9235 8.90632 72.9235 9.43998H72.9219Z" fill="white"/>
<path d="M81.2478 10.5339L82.6682 10.772C82.4861 11.2929 82.1969 11.6891 81.8038 11.9607C81.4092 12.2324 80.9171 12.3682 80.3259 12.3682C79.3896 12.3682 78.6962 12.0614 78.2472 11.4511C77.8925 10.9605 77.7151 10.3422 77.7151 9.59446C77.7151 8.70131 77.9484 8.00309 78.415 7.4982C78.8815 6.9933 79.4711 6.73926 80.1853 6.73926C80.9858 6.73926 81.6185 7.00449 82.0818 7.53335C82.5452 8.06221 82.7657 8.87227 82.7465 9.96514H79.1771C79.1867 10.3885 79.3017 10.7161 79.5222 10.951C79.7427 11.1858 80.0159 11.3041 80.3435 11.3041C80.5672 11.3041 80.7541 11.2434 80.9059 11.1219C81.0577 11.0005 81.1727 10.804 81.251 10.5339H81.2478ZM81.3293 9.09436C81.3197 8.68214 81.2127 8.36898 81.0097 8.15328C80.8068 7.93918 80.5608 7.83053 80.27 7.83053C79.9584 7.83053 79.7028 7.94397 79.4999 8.17085C79.2969 8.39774 79.1979 8.70451 79.2011 9.09436H81.3309H81.3293Z" fill="white"/>
<path d="M88.8436 12.2488H87.5206V11.458C87.3002 11.7663 87.0413 11.9948 86.7425 12.145C86.4438 12.2952 86.1418 12.3703 85.8366 12.3703C85.2183 12.3703 84.6878 12.121 84.2468 11.6225C83.8059 11.124 83.5854 10.429 83.5854 9.53584C83.5854 8.64269 83.7995 7.93009 84.2293 7.45396C84.659 6.97942 85.2007 6.74136 85.8574 6.74136C86.4597 6.74136 86.979 6.9922 87.42 7.4923V4.81445H88.8452V12.2488H88.8436ZM85.0409 9.43998C85.0409 10.0152 85.1208 10.4306 85.279 10.6878C85.5091 11.0601 85.8302 11.2455 86.2424 11.2455C86.57 11.2455 86.8496 11.1064 87.0797 10.8268C87.3097 10.5472 87.4248 10.1318 87.4248 9.57738C87.4248 8.95905 87.3129 8.51328 87.0909 8.24166C86.8688 7.97004 86.5812 7.83263 86.2344 7.83263C85.8877 7.83263 85.6129 7.96684 85.3844 8.23526C85.156 8.50369 85.0425 8.90632 85.0425 9.43998H85.0409Z" fill="white"/>
<path d="M93.0745 12.2488V4.81445H94.4997V7.4923C94.939 6.9922 95.4599 6.74136 96.0623 6.74136C96.7174 6.74136 97.2606 6.97942 97.6904 7.45396C98.1202 7.92849 98.3343 8.61074 98.3343 9.50069C98.3343 10.3906 98.1154 11.1288 97.6776 11.6257C97.2398 12.1226 96.7078 12.3719 96.083 12.3719C95.7747 12.3719 95.4727 12.2952 95.1723 12.1418C94.8735 11.9884 94.6147 11.7615 94.399 11.4596V12.2504H93.0761L93.0745 12.2488ZM94.4885 9.43998C94.4885 9.9976 94.5764 10.4098 94.7521 10.6766C94.9982 11.0553 95.3273 11.2439 95.7363 11.2439C96.0511 11.2439 96.3179 11.1096 96.54 10.8412C96.7621 10.5728 96.8723 10.1494 96.8723 9.57099C96.8723 8.95586 96.7605 8.51168 96.5384 8.24006C96.3163 7.96844 96.0303 7.83103 95.682 7.83103C95.3337 7.83103 95.0573 7.96364 94.8304 8.22887C94.6035 8.4941 94.4901 8.89674 94.4901 9.43838L94.4885 9.43998Z" fill="white"/>
<path d="M98.804 6.86426H100.32L101.608 10.6877L102.866 6.86426H104.342L102.441 12.0474L102.1 12.9853C101.976 13.3 101.856 13.5397 101.742 13.7059C101.629 13.872 101.499 14.0063 101.352 14.1085C101.205 14.2124 101.025 14.2923 100.809 14.3498C100.595 14.4073 100.352 14.4361 100.082 14.4361C99.8122 14.4361 99.539 14.4073 99.2754 14.3498L99.1492 13.2345C99.3728 13.2777 99.5742 13.3 99.7531 13.3C100.084 13.3 100.33 13.2026 100.488 13.0077C100.646 12.8127 100.769 12.5651 100.854 12.2647L98.8056 6.86426H98.804Z" fill="white"/>
<path d="M55.2235 19.3271V20.4631H54.2504V22.6329C54.2504 23.0723 54.26 23.3279 54.2776 23.4014C54.2967 23.4749 54.3383 23.534 54.4038 23.582C54.4693 23.6299 54.5508 23.6539 54.6451 23.6539C54.7777 23.6539 54.9678 23.6075 55.2187 23.5165L55.3401 24.6221C55.0093 24.7643 54.6339 24.8346 54.2153 24.8346C53.958 24.8346 53.7263 24.7915 53.5202 24.7052C53.3141 24.6189 53.1623 24.5071 53.0665 24.3713C52.9706 24.2339 52.9035 24.0485 52.8668 23.8168C52.8364 23.6507 52.8204 23.3167 52.8204 22.8118V20.4647H52.1669V19.3287H52.8204V18.2582L54.2504 17.4258V19.3271H55.2235Z" fill="white"/>
<path d="M57.6329 17.2773V20.0111C58.093 19.4743 58.6427 19.2042 59.2802 19.2042C59.6077 19.2042 59.9033 19.265 60.1669 19.3864C60.4306 19.5078 60.6287 19.6644 60.7629 19.8529C60.8971 20.0431 60.9882 20.2524 61.0361 20.4825C61.0857 20.7125 61.1096 21.0688 61.1096 21.553V24.7117H59.6844V21.8677C59.6844 21.3037 59.6573 20.9442 59.6029 20.7924C59.5486 20.6406 59.4527 20.5192 59.3169 20.4297C59.1795 20.3403 59.0086 20.2955 58.8025 20.2955C58.566 20.2955 58.3551 20.353 58.1681 20.4681C57.9828 20.5831 57.847 20.7557 57.7607 20.9874C57.6744 21.219 57.6313 21.5609 57.6313 22.0147V24.7117H56.2061V17.2773H57.6313H57.6329Z" fill="white"/>
<path d="M65.6744 22.9968L67.0948 23.2349C66.9127 23.7558 66.6235 24.152 66.2304 24.4236C65.8358 24.6953 65.3437 24.8311 64.7525 24.8311C63.8162 24.8311 63.1228 24.5243 62.6738 23.914C62.3191 23.4234 62.1418 22.8051 62.1418 22.0574C62.1418 21.1642 62.375 20.466 62.8416 19.9611C63.3081 19.4562 63.8977 19.2021 64.6119 19.2021C65.4124 19.2021 66.0451 19.4674 66.5084 19.9962C66.9718 20.5251 67.1923 21.3352 67.1731 22.428H63.6037C63.6133 22.8514 63.7283 23.179 63.9488 23.4139C64.1693 23.6487 64.4425 23.767 64.7701 23.767C64.9938 23.767 65.1807 23.7062 65.3325 23.5848C65.4843 23.4634 65.5993 23.2669 65.6776 22.9968H65.6744ZM65.7559 21.5573C65.7463 21.145 65.6393 20.8319 65.4363 20.6162C65.2334 20.4021 64.9874 20.2934 64.6966 20.2934C64.385 20.2934 64.1294 20.4069 63.9265 20.6337C63.7235 20.8606 63.6245 21.1674 63.6277 21.5573H65.7575H65.7559Z" fill="white"/>
<path d="M71.2266 24.7117V17.2773H76.7389V18.5348H72.7269V20.1837H76.4593V21.4363H72.7269V23.4591H76.8795V24.7117H71.225H71.2266Z" fill="white"/>
<path d="M81.6888 24.7109V23.904C81.4923 24.1916 81.235 24.4185 80.9155 24.5831C80.5959 24.7492 80.2588 24.8307 79.9041 24.8307C79.5494 24.8307 79.2171 24.7508 78.9311 24.5927C78.6435 24.4345 78.4357 24.2108 78.3079 23.9232C78.1801 23.6356 78.1146 23.2394 78.1146 22.7313V19.3232H79.5398V21.7982C79.5398 22.5555 79.5654 23.0189 79.6181 23.1898C79.6708 23.3608 79.7651 23.4966 79.9041 23.5957C80.0431 23.6947 80.2188 23.7458 80.4313 23.7458C80.6742 23.7458 80.8931 23.6787 81.0848 23.5461C81.2782 23.4135 81.4092 23.2473 81.4795 23.0492C81.5514 22.8511 81.5865 22.367 81.5865 21.5969V19.3248H83.0117V24.7109H81.6888Z" fill="white"/>
<path d="M85.8525 24.7116H84.4273V19.3255H85.7503V20.0909C85.9772 19.7298 86.1801 19.4917 86.3606 19.3767C86.5412 19.2616 86.7473 19.2041 86.9774 19.2041C87.3017 19.2041 87.6149 19.2936 87.9153 19.4725L87.4743 20.7156C87.2346 20.5606 87.0109 20.4823 86.8048 20.4823C86.5987 20.4823 86.4357 20.5366 86.2983 20.6469C86.1593 20.7571 86.0507 20.9552 85.9708 21.2428C85.8909 21.5304 85.851 22.1328 85.851 23.0483V24.7116H85.8525Z" fill="white"/>
<path d="M88.1997 21.9427C88.1997 21.4697 88.3163 21.0112 88.5496 20.5686C88.7829 20.126 89.1136 19.7873 89.5402 19.554C89.9684 19.3207 90.4461 19.2041 90.9734 19.2041C91.7883 19.2041 92.4561 19.4693 92.977 19.9982C93.4979 20.527 93.7583 21.1965 93.7583 22.0034C93.7583 22.8103 93.4947 23.4941 92.969 24.0293C92.4433 24.5646 91.7819 24.833 90.9846 24.833C90.4909 24.833 90.0195 24.7212 89.5721 24.4991C89.1248 24.277 88.7829 23.9495 88.5512 23.5181C88.3179 23.0867 88.2013 22.5626 88.2013 21.9443L88.1997 21.9427ZM89.6616 22.0194C89.6616 22.553 89.7878 22.962 90.0419 23.2464C90.2959 23.5308 90.6075 23.673 90.9798 23.673C91.3521 23.673 91.6636 23.5308 91.9161 23.2464C92.1685 22.962 92.2931 22.5498 92.2931 22.0098C92.2931 21.4697 92.1669 21.0767 91.9161 20.7923C91.6652 20.5079 91.3521 20.3657 90.9798 20.3657C90.6075 20.3657 90.2959 20.5079 90.0419 20.7923C89.7878 21.0767 89.6616 21.4857 89.6616 22.0194Z" fill="white"/>
<path d="M94.8336 19.3271H96.1613V20.118C96.3339 19.848 96.5672 19.6275 96.8612 19.4581C97.1552 19.2888 97.4811 19.2041 97.839 19.2041C98.4637 19.2041 98.9958 19.4486 99.432 19.9391C99.8682 20.4296 100.085 21.1118 100.085 21.9874C100.085 22.863 99.865 23.5852 99.4256 24.0837C98.9862 24.5822 98.4541 24.8314 97.8278 24.8314C97.5306 24.8314 97.2606 24.7723 97.0193 24.6541C96.7781 24.5358 96.5224 24.3329 96.2556 24.0453V26.7583H94.8304V19.3239L94.8336 19.3271ZM96.2428 21.9283C96.2428 22.5338 96.3627 22.9796 96.6023 23.2688C96.842 23.558 97.1344 23.7018 97.4795 23.7018C97.8246 23.7018 98.0867 23.5692 98.3055 23.304C98.526 23.0387 98.6347 22.6041 98.6347 21.9986C98.6347 21.4346 98.5212 21.0144 98.2944 20.7411C98.0675 20.4679 97.7879 20.3305 97.4523 20.3305C97.1168 20.3305 96.8148 20.4647 96.5848 20.7332C96.3547 21.0016 96.2396 21.3994 96.2396 21.9267L96.2428 21.9283Z" fill="white"/>
<path d="M104.335 22.9968L105.756 23.2349C105.574 23.7558 105.285 24.152 104.891 24.4236C104.497 24.6953 104.005 24.8311 103.414 24.8311C102.477 24.8311 101.784 24.5243 101.335 23.914C100.98 23.4234 100.803 22.8051 100.803 22.0574C100.803 21.1642 101.036 20.466 101.503 19.9611C101.969 19.4562 102.559 19.2021 103.273 19.2021C104.073 19.2021 104.706 19.4674 105.17 19.9962C105.633 20.5251 105.853 21.3352 105.834 22.428H102.265C102.274 22.8514 102.389 23.179 102.61 23.4139C102.83 23.6487 103.104 23.767 103.431 23.767C103.655 23.767 103.842 23.7062 103.994 23.5848C104.145 23.4634 104.26 23.2669 104.339 22.9968H104.335ZM104.417 21.5573C104.407 21.145 104.3 20.8319 104.097 20.6162C103.894 20.4021 103.648 20.2934 103.358 20.2934C103.046 20.2934 102.79 20.4069 102.588 20.6337C102.385 20.8606 102.286 21.1674 102.289 21.5573H104.419H104.417Z" fill="white"/>
<path d="M108.058 20.9696L106.766 20.7364C106.911 20.2155 107.162 19.8304 107.517 19.5796C107.871 19.3287 108.399 19.2041 109.098 19.2041C109.734 19.2041 110.207 19.2792 110.519 19.4294C110.83 19.5796 111.049 19.7713 111.176 20.003C111.302 20.2347 111.366 20.6597 111.366 21.278L111.351 22.9413C111.351 23.4142 111.374 23.7641 111.42 23.9878C111.466 24.2131 111.551 24.4543 111.676 24.71H110.266C110.23 24.6157 110.183 24.4751 110.129 24.2898C110.105 24.2051 110.089 24.1492 110.078 24.122C109.835 24.3585 109.575 24.5358 109.297 24.6541C109.02 24.7723 108.723 24.8314 108.41 24.8314C107.855 24.8314 107.418 24.6812 107.1 24.3809C106.78 24.0805 106.62 23.7002 106.62 23.2401C106.62 22.9365 106.694 22.6649 106.839 22.4268C106.985 22.1887 107.188 22.0066 107.45 21.8788C107.712 21.7525 108.089 21.6407 108.582 21.5464C109.249 21.4218 109.71 21.3052 109.966 21.1965V21.0543C109.966 20.7811 109.899 20.5846 109.763 20.4679C109.627 20.3513 109.373 20.2922 108.998 20.2922C108.744 20.2922 108.546 20.3417 108.405 20.4424C108.263 20.5414 108.148 20.7172 108.06 20.968L108.058 20.9696ZM109.964 22.1264C109.782 22.1871 109.493 22.2606 109.097 22.3437C108.701 22.4284 108.443 22.5115 108.32 22.593C108.135 22.7256 108.041 22.8917 108.041 23.0947C108.041 23.2976 108.114 23.4669 108.264 23.6123C108.413 23.7577 108.603 23.8296 108.832 23.8296C109.089 23.8296 109.333 23.7449 109.567 23.5756C109.739 23.4478 109.853 23.2896 109.907 23.1042C109.944 22.9828 109.963 22.7511 109.963 22.4092V22.1248L109.964 22.1264Z" fill="white"/>
<path d="M117.669 24.711H116.244V21.9628C116.244 21.3812 116.213 21.0058 116.153 20.8348C116.092 20.6638 115.993 20.5312 115.855 20.437C115.718 20.3427 115.553 20.2948 115.362 20.2948C115.116 20.2948 114.894 20.3619 114.697 20.4977C114.5 20.6335 114.366 20.8124 114.294 21.0361C114.221 21.2598 114.186 21.672 114.186 22.2728V24.7126H112.76V19.3265H114.083V20.1174C114.553 19.5087 115.144 19.2051 115.859 19.2051C116.173 19.2051 116.461 19.261 116.721 19.3744C116.982 19.4879 117.178 19.6317 117.313 19.8074C117.447 19.9832 117.539 20.1829 117.592 20.4066C117.645 20.6303 117.67 20.9498 117.67 21.3653V24.7126L117.669 24.711Z" fill="white"/>
<path d="M121.999 17.2773H123.499V21.3037C123.499 21.9428 123.518 22.3566 123.555 22.5468C123.619 22.8503 123.772 23.0948 124.014 23.2801C124.255 23.4655 124.586 23.5566 125.006 23.5566C125.426 23.5566 125.754 23.4703 125.969 23.2961C126.185 23.122 126.316 22.9079 126.359 22.6554C126.402 22.4014 126.425 21.9812 126.425 21.3932V17.2805H127.925V21.1855C127.925 22.0786 127.885 22.7081 127.803 23.0772C127.722 23.4463 127.573 23.7563 127.354 24.0103C127.136 24.2644 126.845 24.4657 126.481 24.6159C126.116 24.7661 125.638 24.8412 125.051 24.8412C124.341 24.8412 123.803 24.7597 123.435 24.5951C123.068 24.4305 122.778 24.218 122.566 23.956C122.353 23.694 122.213 23.4191 122.146 23.1315C122.048 22.7049 121.999 22.077 121.999 21.2446V17.2789V17.2773Z" fill="white"/>
<path d="M134.397 24.711H132.972V21.9628C132.972 21.3812 132.942 21.0058 132.881 20.8348C132.82 20.6638 132.721 20.5312 132.584 20.437C132.447 20.3427 132.282 20.2948 132.09 20.2948C131.844 20.2948 131.622 20.3619 131.426 20.4977C131.229 20.6335 131.095 20.8124 131.023 21.0361C130.949 21.2598 130.914 21.672 130.914 22.2728V24.7126H129.489V19.3265H130.812V20.1174C131.282 19.5087 131.873 19.2051 132.587 19.2051C132.902 19.2051 133.189 19.261 133.45 19.3744C133.71 19.4879 133.907 19.6317 134.041 19.8074C134.175 19.9832 134.268 20.1829 134.321 20.4066C134.373 20.6303 134.399 20.9498 134.399 21.3653V24.7126L134.397 24.711Z" fill="white"/>
<path d="M135.843 18.5965V17.2783H137.269V18.5965H135.843ZM135.843 24.7111V19.3251H137.269V24.7111H135.843Z" fill="white"/>
<path d="M138.398 21.9427C138.398 21.4697 138.515 21.0112 138.748 20.5686C138.981 20.126 139.312 19.7873 139.739 19.554C140.167 19.3207 140.645 19.2041 141.172 19.2041C141.987 19.2041 142.655 19.4693 143.175 19.9982C143.696 20.527 143.957 21.1965 143.957 22.0034C143.957 22.8103 143.693 23.4941 143.168 24.0293C142.642 24.5646 141.98 24.833 141.183 24.833C140.689 24.833 140.218 24.7212 139.771 24.4991C139.323 24.277 138.981 23.9495 138.75 23.5181C138.516 23.0867 138.4 22.5626 138.4 21.9443L138.398 21.9427ZM139.859 22.0194C139.859 22.553 139.985 22.962 140.239 23.2464C140.493 23.5308 140.804 23.673 141.177 23.673C141.549 23.673 141.861 23.5308 142.113 23.2464C142.365 22.962 142.49 22.5498 142.49 22.0098C142.49 21.4697 142.364 21.0767 142.113 20.7923C141.862 20.5079 141.549 20.3657 141.177 20.3657C140.804 20.3657 140.493 20.5079 140.239 20.7923C139.985 21.0767 139.859 21.4857 139.859 22.0194Z" fill="white"/>
<path d="M149.971 24.711H148.546V21.9628C148.546 21.3812 148.515 21.0058 148.455 20.8348C148.394 20.6638 148.295 20.5312 148.157 20.437C148.02 20.3427 147.855 20.2948 147.664 20.2948C147.418 20.2948 147.195 20.3619 146.999 20.4977C146.802 20.6335 146.668 20.8124 146.596 21.0361C146.523 21.2598 146.488 21.672 146.488 22.2728V24.7126H145.062V19.3265H146.385V20.1174C146.855 19.5087 147.446 19.2051 148.161 19.2051C148.475 19.2051 148.763 19.261 149.023 19.3744C149.284 19.4879 149.48 19.6317 149.615 19.8074C149.749 19.9832 149.841 20.1829 149.894 20.4066C149.947 20.6303 149.972 20.9498 149.972 21.3653V24.7126L149.971 24.711Z" fill="white"/>
</g>
<defs>
<clipPath id="clip0_5120_6933">
<rect width="149.971" height="32" fill="white"/>
</clipPath>
</defs>
</svg>
