<svg width="98" height="32" viewBox="0 0 98 32" fill="none" xmlns="http://www.w3.org/2000/svg">
<g clip-path="url(#clip0_5120_6973)">
<mask id="mask0_5120_6973" style="mask-type:luminance" maskUnits="userSpaceOnUse" x="0" y="0" width="98" height="32">
<path d="M97.5556 0H0V32H97.5556V0Z" fill="white"/>
</mask>
<g mask="url(#mask0_5120_6973)">
<path d="M39.9121 18.0995V16.4062H40.3389V18.0823C40.3389 18.7431 40.6417 19.0391 41.1786 19.0391C41.7155 19.0391 42.0218 18.7397 42.0218 18.0823V16.4062H42.4348V18.0995C42.4348 18.9634 41.9633 19.4177 41.1752 19.4177C40.387 19.4177 39.9156 18.9634 39.9156 18.0995" fill="white"/>
<path d="M45.195 19.3828L44.5514 18.4673C44.4929 18.4707 44.4275 18.4776 44.3656 18.4776H43.6291V19.3828H43.2023V16.4023H44.3656C45.14 16.4023 45.608 16.7947 45.608 17.4417C45.608 17.9029 45.3705 18.2333 44.9541 18.3847L45.6596 19.3862H45.195V19.3828ZM45.1813 17.4417C45.1813 17.0149 44.8956 16.774 44.3518 16.774H43.6291V18.1163H44.3518C44.8956 18.1163 45.1813 17.8685 45.1813 17.4417Z" fill="white"/>
<path d="M45.9521 17.8928C45.9521 17.0221 46.6267 16.3682 47.5422 16.3682C48.4576 16.3682 49.1219 17.0152 49.1219 17.8928C49.1219 18.7704 48.4473 19.4174 47.5422 19.4174C46.637 19.4174 45.9521 18.767 45.9521 17.8928ZM48.6951 17.8928C48.6951 17.232 48.1995 16.7467 47.5422 16.7467C46.8848 16.7467 46.3789 17.232 46.3789 17.8928C46.3789 18.5536 46.8711 19.0388 47.5422 19.0388C48.2133 19.0388 48.6951 18.5536 48.6951 17.8928Z" fill="white"/>
<path d="M52.0748 17.4417C52.0748 18.0887 51.6067 18.4811 50.8324 18.4811H50.0959V19.3828H49.6691V16.4023H50.8324C51.6067 16.4023 52.0748 16.7947 52.0748 17.4417ZM51.6515 17.4417C51.6515 17.0149 51.3658 16.774 50.8221 16.774H50.0993V18.1094H50.8221C51.3658 18.1094 51.6515 17.8685 51.6515 17.4417Z" fill="white"/>
<path d="M54.7627 19.0111V19.3828H52.6014V16.4023H54.7042V16.774H53.0247V17.6895H54.5218V18.0509H53.0247V19.0111H54.7627Z" fill="white"/>
<path d="M57.2509 18.6394H55.6678L55.3408 19.3828H54.9037L56.2529 16.4023H56.6762L58.0322 19.3828H57.5848L57.2578 18.6394H57.2509ZM57.0995 18.2987L56.4559 16.8394L55.8123 18.2987H57.0995Z" fill="white"/>
<path d="M60.9266 16.4023V19.3828H60.579L58.7928 17.1595V19.3828H58.366V16.4023H58.7136L60.5033 18.6256V16.4023H60.9266Z" fill="white"/>
<path d="M62.52 17.8928C62.52 17.0117 63.1945 16.3682 64.0997 16.3682C64.5609 16.3682 64.9601 16.523 65.232 16.8328L64.9532 17.1012C64.7226 16.8569 64.4438 16.7467 64.1169 16.7467C63.4423 16.7467 62.9467 17.232 62.9467 17.8928C62.9467 18.5536 63.4458 19.0388 64.1169 19.0388C64.4438 19.0388 64.726 18.9253 64.9532 18.6809L65.232 18.9494C64.9601 19.2557 64.5574 19.4174 64.0928 19.4174C63.1911 19.4174 62.5165 18.7738 62.5165 17.8928" fill="white"/>
<path d="M66.8289 18.3537V19.3828H66.4056V18.3468L65.2217 16.4023H65.6794L66.6327 17.9752L67.5895 16.4023H68.0094L66.8289 18.3537Z" fill="white"/>
<path d="M70.8486 18.5813C70.8486 19.0907 70.4632 19.3867 69.7095 19.3867H68.2881V16.4062H69.6234C70.3083 16.4062 70.6938 16.6953 70.6938 17.1772C70.6938 17.5007 70.5286 17.7278 70.2945 17.8414C70.6318 17.9343 70.8521 18.1856 70.8521 18.5813M68.7148 16.7504V17.7037H69.5856C70.0192 17.7037 70.267 17.542 70.267 17.2254C70.267 16.9087 70.0192 16.747 69.5856 16.747H68.7148V16.7504ZM70.4219 18.5469C70.4219 18.2028 70.1672 18.0479 69.6923 18.0479H68.7148V19.0391H69.6923C70.1638 19.0391 70.4219 18.8911 70.4219 18.5469Z" fill="white"/>
<path d="M73.571 19.0111V19.3828H71.4097V16.4023H73.5125V16.774H71.8364V17.6895H73.3301V18.0509H71.8364V19.0111H73.571Z" fill="white"/>
<path d="M76.1522 19.3828L75.5086 18.4673C75.4501 18.4707 75.3847 18.4776 75.3193 18.4776H74.5828V19.3828H74.1561V16.4023H75.3193C76.0937 16.4023 76.5617 16.7947 76.5617 17.4417C76.5617 17.9029 76.3243 18.2333 75.9044 18.3847L76.6099 19.3862H76.1453L76.1522 19.3828ZM76.1384 17.4417C76.1384 17.0149 75.8528 16.774 75.309 16.774H74.5863V18.1163H75.309C75.8528 18.1163 76.1384 17.8685 76.1384 17.4417Z" fill="white"/>
<path d="M76.8783 19.0423L77.0366 18.7085C77.2569 18.9081 77.6355 19.0526 78.0209 19.0526C78.5372 19.0526 78.7574 18.853 78.7574 18.5914C78.7574 17.8653 76.9506 18.323 76.9506 17.2182C76.9506 16.7571 77.3085 16.3682 78.0932 16.3682C78.4408 16.3682 78.8056 16.4611 79.05 16.6332L78.9089 16.9739C78.6473 16.8087 78.3548 16.7295 78.0898 16.7295C77.5838 16.7295 77.367 16.9429 77.367 17.201C77.367 17.9306 79.1704 17.4729 79.1704 18.5673C79.1704 19.0251 78.8056 19.414 78.0175 19.414C77.5632 19.414 77.1158 19.2625 76.8749 19.0388" fill="white"/>
<path d="M81.8584 19.0111V19.3828H79.6936V16.4023H81.7964V16.774H80.1204V17.6895H81.614V18.0509H80.1204V19.0111H81.8584Z" fill="white"/>
<path d="M82.1888 17.8928C82.1888 17.0117 82.8633 16.3682 83.7685 16.3682C84.2296 16.3682 84.6289 16.523 84.9008 16.8328L84.622 17.1012C84.3914 16.8569 84.1126 16.7467 83.7857 16.7467C83.1111 16.7467 82.6155 17.232 82.6155 17.8928C82.6155 18.5536 83.1146 19.0388 83.7857 19.0388C84.1126 19.0388 84.3949 18.9253 84.622 18.6809L84.9008 18.9494C84.6289 19.2557 84.2262 19.4174 83.765 19.4174C82.8633 19.4174 82.1888 18.7738 82.1888 17.8928Z" fill="white"/>
<path d="M85.3688 18.0995V16.4062H85.7956V18.0823C85.7956 18.7431 86.0985 19.0391 86.6353 19.0391C87.1722 19.0391 87.4785 18.7397 87.4785 18.0823V16.4062H87.8915V18.0995C87.8915 18.9634 87.42 19.4177 86.6319 19.4177C85.8438 19.4177 85.3723 18.9634 85.3723 18.0995" fill="white"/>
<path d="M90.6551 19.3828L90.0116 18.4673C89.953 18.4707 89.8876 18.4776 89.8223 18.4776H89.0858V19.3828H88.659V16.4023H89.8223C90.5966 16.4023 91.0647 16.7947 91.0647 17.4417C91.0647 17.9029 90.8272 18.2333 90.4073 18.3847L91.1129 19.3862H90.6483L90.6551 19.3828ZM90.6414 17.4417C90.6414 17.0149 90.3557 16.774 89.8119 16.774H89.0892V18.1163H89.8119C90.3557 18.1163 90.6414 17.8685 90.6414 17.4417Z" fill="white"/>
<path d="M92.0834 16.4023H91.6566V19.3828H92.0834V16.4023Z" fill="white"/>
<path d="M93.4601 16.774H92.4413V16.4023H94.9055V16.774H93.8834V19.3828H93.4601V16.774Z" fill="white"/>
<path d="M96.3751 18.3537V19.3828H95.9517V18.3468L94.7678 16.4023H95.2256L96.1789 17.9752L97.1356 16.4023H97.559L96.3751 18.3537Z" fill="white"/>
<path d="M36.9421 23.011C36.9421 22.1299 37.6166 21.4863 38.5218 21.4863C38.9829 21.4863 39.3822 21.6446 39.6541 21.9509L39.3787 22.2194C39.1481 21.9785 38.8659 21.8649 38.539 21.8649C37.8644 21.8649 37.3688 22.3502 37.3688 23.011C37.3688 23.6717 37.8679 24.157 38.539 24.157C38.8659 24.157 39.1481 24.04 39.3787 23.7991L39.6541 24.0675C39.3822 24.3738 38.9829 24.5356 38.5183 24.5356C37.6166 24.5356 36.9421 23.892 36.9421 23.011Z" fill="white"/>
<path d="M39.8571 23.011C39.8571 22.1368 40.5282 21.4863 41.4437 21.4863C42.3592 21.4863 43.0234 22.1333 43.0234 23.011C43.0234 23.8886 42.3488 24.5356 41.4437 24.5356C40.5386 24.5356 39.8571 23.8851 39.8571 23.011ZM42.5966 23.011C42.5966 22.3502 42.1045 21.8649 41.4437 21.8649C40.7829 21.8649 40.2804 22.3502 40.2804 23.011C40.2804 23.6717 40.776 24.157 41.4437 24.157C42.1114 24.157 42.5966 23.6717 42.5966 23.011Z" fill="white"/>
<path d="M46.3376 24.5009L46.3342 22.3293L45.257 24.1396H45.0608L43.9836 22.3431V24.5009H43.574V21.5205H43.9216L45.1675 23.6164L46.3927 21.5205H46.7403L46.7438 24.5009H46.3376Z" fill="white"/>
<path d="M49.9444 22.5599C49.9444 23.2069 49.4764 23.5992 48.702 23.5992H47.9655V24.5009H47.5388V21.5205H48.702C49.4764 21.5205 49.9444 21.9129 49.9444 22.5599ZM49.5177 22.5599C49.5177 22.1331 49.232 21.8922 48.6883 21.8922H47.9655V23.2275H48.6883C49.232 23.2275 49.5177 22.9866 49.5177 22.5599Z" fill="white"/>
<path d="M52.6323 24.1292V24.5009H50.4675V21.5205H52.5703V21.8922H50.8943V22.8077H52.3879V23.169H50.8943V24.1292H52.6323Z" fill="white"/>
<path d="M53.8094 21.8922H52.7872V21.5205H55.2549V21.8922H54.2327V24.5009H53.8094V21.8922Z" fill="white"/>
<path d="M57.7775 24.1292V24.5009H55.6162V21.5205H57.719V21.8922H56.0395V22.8077H57.5332V23.169H56.0395V24.1292H57.7775Z" fill="white"/>
<path d="M60.9266 21.5205V24.5009H60.579L58.7928 22.2777V24.5009H58.366V21.5205H58.7136L60.5033 23.7438V21.5205H60.9266Z" fill="white"/>
<path d="M61.4772 23.011C61.4772 22.1299 62.1518 21.4863 63.0569 21.4863C63.5181 21.4863 63.9173 21.6446 64.1892 21.9509L63.9104 22.2194C63.6799 21.9785 63.4011 21.8649 63.0741 21.8649C62.3996 21.8649 61.904 22.3502 61.904 23.011C61.904 23.6717 62.403 24.157 63.0741 24.157C63.4011 24.157 63.6833 24.04 63.9104 23.7991L64.1892 24.0675C63.9173 24.3738 63.5147 24.5356 63.0535 24.5356C62.1518 24.5356 61.4772 23.892 61.4772 23.011Z" fill="white"/>
<path d="M66.8599 24.1292V24.5009H64.6985V21.5205H66.8014V21.8922H65.1253V22.8077H66.619V23.169H65.1253V24.1292H66.8599Z" fill="white"/>
<path d="M68.2469 23.011C68.2469 22.1299 68.9214 21.4863 69.8265 21.4863C70.2877 21.4863 70.6869 21.6446 70.9588 21.9509L70.6835 22.2194C70.4529 21.9785 70.1707 21.8649 69.8438 21.8649C69.1692 21.8649 68.6736 22.3502 68.6736 23.011C68.6736 23.6717 69.1726 24.157 69.8438 24.157C70.1707 24.157 70.4529 24.04 70.6835 23.7991L70.9588 24.0675C70.6869 24.3738 70.2843 24.5356 69.8197 24.5356C68.918 24.5356 68.2434 23.892 68.2434 23.011" fill="white"/>
<path d="M73.6295 24.1292V24.5009H71.4647V21.5205H73.5675V21.8922H71.8915V22.8077H73.3851V23.169H71.8915V24.1292H73.6295Z" fill="white"/>
<path d="M76.7785 21.5205V24.5009H76.4275L74.6413 22.2777V24.5009H74.2145V21.5205H74.5621L76.3518 23.7438V21.5205H76.7785Z" fill="white"/>
<path d="M78.162 21.8922H77.1399V21.5205H79.6075V21.8922H78.5854V24.5009H78.162V21.8922Z" fill="white"/>
<path d="M81.9616 24.5009L81.3181 23.5855C81.2596 23.5889 81.1942 23.5924 81.1288 23.5924H80.3923V24.5009H79.9655V21.5205H81.1288C81.9031 21.5205 82.3712 21.9129 82.3712 22.5599C82.3712 23.0176 82.1337 23.3514 81.7173 23.4994L82.4228 24.5009H81.9582H81.9616ZM81.9479 22.5599C81.9479 22.1331 81.6622 21.8922 81.1184 21.8922H80.3957V23.2344H81.1184C81.6622 23.2344 81.9479 22.9866 81.9479 22.5633" fill="white"/>
<path d="M85.1245 24.1292V24.5009H82.9597V21.5205H85.0625V21.8922H83.3865V22.8077H84.8801V23.169H83.3865V24.1292H85.1245Z" fill="white"/>
<path d="M46.0657 10.3108V12.1831H37.059V0.171875H45.8248V2.04066H39.2892V5.16564H45.0883V7.00001H39.2892V10.3108H46.0657Z" fill="white"/>
<path d="M47.642 6.17767C47.642 2.59153 50.3884 0 54.0778 0C56.0326 0 57.7155 0.702086 58.8306 2.00645L57.3886 3.36244C56.5144 2.41945 55.4338 1.95483 54.181 1.95483C51.6927 1.95483 49.8928 3.70316 49.8928 6.17423C49.8928 8.6453 51.6962 10.3936 54.181 10.3936C55.4338 10.3936 56.5144 9.92902 57.3886 8.96881L58.8306 10.342C57.7155 11.6464 56.0326 12.3519 54.0606 12.3519C50.3884 12.3519 47.642 9.76038 47.642 6.17423" fill="white"/>
<path d="M59.8528 6.17767C59.8528 2.59153 62.5992 0 66.2886 0C68.2434 0 69.9263 0.702086 71.0414 2.00645L69.5994 3.36244C68.7252 2.41945 67.6446 1.95483 66.3918 1.95483C63.9035 1.95483 62.1036 3.70316 62.1036 6.17423C62.1036 8.6453 63.907 10.3936 66.3918 10.3936C67.6446 10.3936 68.7252 9.92902 69.5994 8.96881L71.0414 10.342C69.9263 11.6464 68.2434 12.3519 66.2714 12.3519C62.5992 12.3519 59.8528 9.76038 59.8528 6.17423" fill="white"/>
<path d="M72.067 6.17767C72.067 2.59153 74.8134 0 78.5028 0C80.4576 0 82.1406 0.702086 83.2557 2.00645L81.8136 3.36244C80.9395 2.41945 79.8588 1.95483 78.6061 1.95483C76.1178 1.95483 74.3178 3.70316 74.3178 6.17423C74.3178 8.6453 76.1212 10.3936 78.6061 10.3936C79.8588 10.3936 80.9395 9.92902 81.8136 8.96881L83.2557 10.342C82.1406 11.6464 80.4576 12.3519 78.4856 12.3519C74.8134 12.3519 72.067 9.76038 72.067 6.17423" fill="white"/>
<path d="M97.2557 2.94336V9.40918H87.2655V2.94336H97.2557Z" stroke="white" stroke-width="0.6"/>
<path d="M92.0317 4.18153L92.2554 4.01633L92.4826 4.18153L92.3965 3.91309L92.6202 3.75821H92.3449L92.2554 3.48633L92.1694 3.75821H91.8906L92.1178 3.91309L92.0317 4.18153Z" fill="white"/>
<path d="M90.8753 4.49501L91.1025 4.32981L91.3262 4.49501L91.2401 4.22656L91.4673 4.06137H91.1885L91.1025 3.7998L91.013 4.06137H90.7377L90.9614 4.22656L90.8753 4.49501Z" fill="white"/>
<path d="M90.249 4.64258L90.1698 4.91102H89.8842L90.1182 5.07622L90.0321 5.33778L90.249 5.17258L90.4761 5.33778L90.3901 5.07622L90.6138 4.91102H90.3384L90.249 4.64258Z" fill="white"/>
<path d="M89.9462 6.32883L90.163 6.49403L90.0838 6.23247L90.311 6.06727H90.0322L89.9462 5.79883L89.8601 6.06727H89.5814L89.8051 6.23247L89.719 6.49403L89.9462 6.32883Z" fill="white"/>
<path d="M90.3384 7.22348L90.249 6.96191L90.1732 7.22348H89.8842L90.1182 7.38867L90.0321 7.65712L90.249 7.49192L90.4761 7.65712L90.3901 7.38867L90.6138 7.22348H90.3384Z" fill="white"/>
<path d="M91.1885 8.07411L91.1025 7.80566L91.013 8.07411H90.7377L90.9614 8.23931L90.8753 8.50087L91.1025 8.33567L91.3262 8.50087L91.2401 8.23931L91.4673 8.07411H91.1885Z" fill="white"/>
<path d="M92.3449 8.3807L92.2554 8.11914L92.1694 8.3807H91.8906L92.1178 8.5459L92.0317 8.80402L92.2554 8.64915L92.4826 8.80402L92.3965 8.5459L92.6237 8.3807H92.3449Z" fill="white"/>
<path d="M93.4979 8.07411L93.4119 7.80566L93.3258 8.07411H93.0471L93.2742 8.23931L93.1882 8.50087L93.4119 8.33567L93.639 8.50087L93.553 8.23931L93.7767 8.07411H93.4979Z" fill="white"/>
<path d="M94.3411 7.22348L94.2654 6.96191L94.1759 7.22348H93.9006L94.1243 7.38867L94.0382 7.65712L94.2654 7.49192L94.4822 7.65712L94.403 7.38867L94.6302 7.22348H94.3411Z" fill="white"/>
<path d="M94.933 6.06727H94.6542L94.5682 5.79883L94.4821 6.06727H94.2034L94.4305 6.22559L94.341 6.49403L94.5682 6.32883L94.7953 6.49403L94.7058 6.22559L94.933 6.06727Z" fill="white"/>
<path d="M94.0382 5.33778L94.2654 5.17258L94.4822 5.33778L94.403 5.06934L94.6302 4.91102H94.3411L94.2654 4.64258L94.1759 4.91102H93.9006L94.1243 5.06934L94.0382 5.33778Z" fill="white"/>
<path d="M93.4119 3.7998L93.3327 4.06137H93.0471L93.2742 4.22656L93.1951 4.49501L93.4119 4.32981L93.639 4.49501L93.553 4.22656L93.7767 4.06137H93.4979L93.4119 3.7998Z" fill="white"/>
<path d="M-9.15527e-05 0.171875V5.09336H1.91344V2.0854H13.6734V5.09336H15.5904V2.0854H27.3503V5.09336H29.2638V0.171875H-9.15527e-05Z" fill="white"/>
<path d="M27.3503 22.1363L14.6336 29.7663L1.91344 22.1363V8.0498H-9.15527e-05V23.2204L14.6336 31.9999L29.2638 23.2204V8.0498H27.3503V22.1363Z" fill="white"/>
<path d="M4.86975 5.09375V20.4639L14.6336 26.3215L24.3939 20.4639V5.09375H22.4804V19.3798L14.6336 24.0914L6.78328 19.3798V5.09375H4.86975Z" fill="white"/>
<path d="M9.73621 5.09375V17.7072L14.6336 20.6463L19.5276 17.7072V5.09375H17.614V16.6231L14.6336 18.4127L11.6497 16.6231V5.09375H9.73621Z" fill="white"/>
</g>
<path d="M39.3477 19.0111V19.3828H37.1864V16.4023H39.2892V16.774H37.6132V17.6895H39.1068V18.0509H37.6132V19.0111H39.3477Z" fill="white"/>
</g>
<defs>
<clipPath id="clip0_5120_6973">
<rect width="97.559" height="32" fill="white"/>
</clipPath>
</defs>
</svg>
